<svg xmlns="http://www.w3.org/2000/svg" viewBox="0 0 100 100">
  <!-- Icon: Winkende Hand -->
  <circle cx="50" cy="50" r="48" fill="#fa4f4f"/>
  <g transform="translate(28, 22)">
    <path d="M18 28c-1-0.5-1.5-1.5-1.5-2.5v-10c0-1 1-2 2-2s2 1 2 2v7" fill="white"/>
    <path d="M21 17.5v-9c0-1 1-2 2-2s2 1 2 2v9" fill="white"/>
    <path d="M25 17.5v-7c0-1 1-2 2-2s2 1 2 2v7" fill="white"/>
    <path d="M29 19.5v-5c0-1 1-2 2-2s2 1 2 2v5" fill="white"/>
    <ellipse cx="25" cy="29" rx="9" ry="7.5" fill="white"/>
    <path d="M10 10 L7 7.5" stroke="white" stroke-width="1.5" stroke-linecap="round"/>
    <path d="M8 15 L4 14" stroke="white" stroke-width="1.5" stroke-linecap="round"/>
    <path d="M10 20 L6 21" stroke="white" stroke-width="1.5" stroke-linecap="round"/>
  </g>
</svg>
