<svg xmlns="http://www.w3.org/2000/svg" viewBox="0 0 200 200">
  <!-- Farewellify Logo 1: Winkende Hand mit Pandata -->
  
  <!-- Weisser Hintergrund -->
  <rect width="200" height="200" fill="white"/>
  
  <!-- Roter Kreis -->
  <circle cx="100" cy="80" r="55" fill="#fa4f4f"/>
  
  <!-- Winkende Hand (weiss) -->
  <g transform="translate(72, 42)">
    <path d="M22 32c-1.2-0.6-1.8-1.8-1.8-3v-12c0-1.2 1.2-2.4 2.4-2.4s2.4 1.2 2.4 2.4v8.4" fill="white"/>
    <path d="M25 21v-10.8c0-1.2 1.2-2.4 2.4-2.4s2.4 1.2 2.4 2.4v10.8" fill="white"/>
    <path d="M30 21v-8.4c0-1.2 1.2-2.4 2.4-2.4s2.4 1.2 2.4 2.4v8.4" fill="white"/>
    <path d="M35 23.4v-6c0-1.2 1.2-2.4 2.4-2.4s2.4 1.2 2.4 2.4v6" fill="white"/>
    <ellipse cx="30" cy="35" rx="11" ry="9" fill="white"/>
    <!-- Bewegungslinien -->
    <path d="M12 12 L8 9" stroke="white" stroke-width="1.6" stroke-linecap="round"/>
    <path d="M10 18 L5 17" stroke="white" stroke-width="1.6" stroke-linecap="round"/>
    <path d="M12 24 L7 25" stroke="white" stroke-width="1.6" stroke-linecap="round"/>
  </g>
  
  <!-- Text: farewellify -->
  <text x="100" y="158" text-anchor="middle" font-family="'Open Sans', Arial, sans-serif" font-size="22" font-weight="600">
    <tspan fill="#fa4f4f">farewell</tspan><tspan fill="#434343">ify</tspan>
  </text>
  
  <!-- Pandata Logo (klein, unten rechts) -->
  <g transform="translate(155, 170) scale(0.0014, -0.0014)">
    <path fill="#434343" d="M9970 15340 c-420 -77 -619 -113 -2640 -474 -355 -64 -809 -145 -1010 -181 -201 -36 -479 -86 -618 -110 -412 -73 -423 -76 -470 -119 -35 -31 -52 -70 -52 -116 0 -42 46 -174 520 -1490 122 -338 254 -707 295 -820 40 -113 124 -344 185 -515 166 -461 190 -529 190 -542 0 -10 -964 -708 -995 -719 -7 -3 -35 11 -61 31 -126 97 -273 145 -439 145 -142 0 -229 -19 -336 -73 l-86 -44 -749 744 c-412 409 -769 757 -793 773 -73 49 -163 33 -224 -39 -29 -35 -32 -46 -96 -406 -47 -262 -123 -682 -226 -1255 -132 -733 -217 -1201 -316 -1755 -28 -154 -66 -364 -85 -467 -19 -103 -34 -199 -34 -214 0 -15 38 -156 84 -313 47 -157 207 -702 356 -1211 149 -509 334 -1138 411 -1399 76 -260 139 -478 139 -485 0 -6 -30 -33 -66 -60 -86 -63 -165 -160 -219 -268 -60 -121 -79 -210 -73 -356 9 -206 70 -344 219 -494 75 -75 100 -93 190 -136 57 -28 126 -55 154 -62 73 -17 288 -14 360 5 131 34 284 129 369 229 40 46 109 151 118 178 2 5 339 -52 748 -127 410 -75 1026 -187 1370 -250 344 -63 861 -157 1150 -210 289 -52 534 -97 545 -100 17 -3 22 -18 32 -80 62 -386 426 -663 812 -616 303 37 539 233 631 526 33 107 38 256 11 369 -29 120 -87 235 -165 325 l-64 74 33 61 c29 54 501 946 752 1421 406 768 727 1373 738 1391 l13 21 2469 7 c1357 4 2488 11 2512 15 57 11 91 37 119 92 17 31 22 55 19 84 -2 22 -111 375 -242 785 -130 410 -437 1375 -682 2145 -244 770 -494 1555 -554 1745 -61 190 -132 415 -160 500 l-49 155 22 15 c258 175 387 488 322 783 -20 93 -90 236 -151 312 -97 119 -251 216 -396 250 -93 21 -274 21 -357 0 -73 -19 -176 -64 -222 -96 -28 -20 -33 -21 -54 -8 -12 8 -582 507 -1265 1109 -683 602 -1306 1151 -1383 1219 -78 68 -155 130 -173 137 -48 21 -93 16 -383 -36z"/>
  </g>
  
  <!-- "by pandata" Text -->
  <text x="100" y="178" text-anchor="middle" font-family="'Open Sans', Arial, sans-serif" font-size="9" fill="#999">
    by pandata
  </text>
</svg>
